<?xml version="1.0" encoding="UTF-8"?>
<svg id="Layer_1" data-name="Layer 1" xmlns="http://www.w3.org/2000/svg" viewBox="0 0 1080 1080">
  <defs>
    <style>
      .cls-1 {
        fill: #061219;
      }

      .cls-2, .cls-3 {
        fill: #f65c58;
      }

      .cls-3 {
        stroke: #061219;
        stroke-miterlimit: 10;
        stroke-width: 10px;
      }
    </style>
  </defs>
  <g>
    <polyline class="cls-3" points="843.48 540.15 995 277.65 691.94 277.65"/>
    <polyline class="cls-3" points="388.91 802.65 540.44 1065.15 691.96 802.65"/>
    <polyline class="cls-3" points="388.9 277.65 85.86 277.64 237.38 540.14"/>
    <line class="cls-3" x1="85.86" y1="277.64" x2="313.15" y2="408.9"/>
    <line class="cls-3" x1="995" y1="277.65" x2="767.71" y2="408.9"/>
    <line class="cls-3" x1="540.44" y1="1065.15" x2="540.44" y2="802.65"/>
  </g>
  <g>
    <polygon class="cls-3" points="995 802.65 540.42 15.15 85.86 802.64 995 802.65"/>
    <g>
      <line class="cls-2" x1="995" y1="802.65" x2="767.72" y2="671.4"/>
      <polygon class="cls-1" points="993.75 804.81 765.22 675.73 770.22 667.07 996.25 800.48 993.75 804.81 993.75 804.81"/>
    </g>
    <g>
      <line class="cls-2" x1="85.86" y1="802.64" x2="313.15" y2="671.39"/>
      <polygon class="cls-1" points="84.61 800.48 310.65 667.06 315.65 675.72 87.11 804.81 84.61 800.48 84.61 800.48"/>
    </g>
    <g>
      <line class="cls-2" x1="540.43" y1="277.65" x2="540.42" y2="15.15"/>
      <polygon class="cls-1" points="535.43 277.65 537.92 15.15 542.92 15.15 545.43 277.64 535.43 277.65 535.43 277.65"/>
    </g>
  </g>
  <polygon class="cls-3" points="767.72 671.4 540.43 277.65 313.15 671.4 767.72 671.4"/>
</svg>